<svg viewBox="0 0 320 330" role="img" aria-label="Айбар" xmlns="http://www.w3.org/2000/svg"><defs><linearGradient id="_R_0_-fur" x1="0" y1="0" x2=".85" y2="1"><stop stop-color="#a6bcc9"></stop><stop offset="1" stop-color="#a6bcc9" stop-opacity=".86"></stop></linearGradient><linearGradient id="_R_0_-cream" x2="0" y2="1"><stop stop-color="#fff9ee"></stop><stop offset="1" stop-color="#f3f6ee"></stop></linearGradient><linearGradient id="_R_0_-gold" x2="1" y2="1"><stop stop-color="#fff0b3"></stop><stop offset="1" stop-color="#c58a3a"></stop></linearGradient></defs><ellipse class="char-shadow" cx="160" cy="305" rx="81" ry="13" fill="#283250" opacity=".12"></ellipse><g class="char-body" stroke="#373348" stroke-width="3" stroke-linejoin="round" stroke-linecap="round"><g class="char-tail"><path d="M209 266C279 301 299 240 267 222" fill="none" stroke="#a6bcc9" stroke-width="27"></path><path d="M264 264L273 276M279 243L288 244M257 271L259 282" stroke="#667a93" stroke-width="5"></path></g><ellipse cx="160" cy="238" rx="58" ry="60" fill="url(#_R_0_-fur)"></ellipse><ellipse cx="160" cy="242" rx="34" ry="43" fill="url(#_R_0_-cream)" stroke="none"></ellipse><ellipse cx="127" cy="292" rx="24" ry="13" fill="#a6bcc9"></ellipse><ellipse cx="193" cy="292" rx="24" ry="13" fill="#a6bcc9"></ellipse><ellipse class="char-paw char-paw-left" cx="108" cy="238" rx="17" ry="32" fill="#a6bcc9"></ellipse><ellipse class="char-paw char-paw-right" cx="212" cy="238" rx="17" ry="32" fill="#a6bcc9"></ellipse><g class="char-head"><g class="char-ear char-ear-left"><circle cx="105" cy="92" r="21" fill="#a6bcc9"></circle><circle cx="105" cy="92" r="12" fill="#f3f6ee" stroke="none"></circle></g><g class="char-ear char-ear-right"><circle cx="215" cy="92" r="21" fill="#a6bcc9"></circle><circle cx="215" cy="92" r="12" fill="#f3f6ee" stroke="none"></circle></g><path d="M81 136Q80 79 160 79Q240 79 239 136L236 160Q229 211 160 211Q91 211 84 160Z" fill="url(#_R_0_-fur)"></path><ellipse cx="160" cy="178" rx="49" ry="27" fill="url(#_R_0_-cream)" stroke="none"></ellipse><g fill="#667d91" stroke="none"><ellipse cx="99" cy="131" rx="5" ry="8"></ellipse><ellipse cx="222" cy="131" rx="5" ry="8"></ellipse><ellipse cx="111" cy="109" rx="7" ry="4"></ellipse><ellipse cx="209" cy="109" rx="7" ry="4"></ellipse><ellipse cx="149" cy="99" rx="4" ry="6"></ellipse><ellipse cx="174" cy="100" rx="4" ry="6"></ellipse><path d="M94 160L108 163M225 160L212 163" stroke="#667d91" stroke-width="5"></path></g><g class="char-eyes" stroke="#323043" stroke-width="4"><ellipse cx="125" cy="144" rx="8" ry="12" fill="#323043"></ellipse><ellipse cx="195" cy="144" rx="8" ry="12" fill="#323043"></ellipse><circle cx="128" cy="140" r="3" fill="white" stroke="none"></circle><circle cx="198" cy="140" r="3" fill="white" stroke="none"></circle></g><ellipse cx="107" cy="164" rx="10" ry="5" fill="#e89b89" opacity=".55" stroke="none"></ellipse><ellipse cx="213" cy="164" rx="10" ry="5" fill="#e89b89" opacity=".55" stroke="none"></ellipse><path d="M150 173Q160 168 170 173Q169 183 160 185Q151 183 150 173Z" fill="#383043"></path><path d="M146 189Q160 199 174 189" fill="none"></path></g></g></svg>
